<svg width="41" height="57" viewBox="0 0 41 57" fill="none" xmlns="http://www.w3.org/2000/svg">
<path d="M0 7.47388C0 5.86705 1.30259 4.56445 2.90943 4.56445H37.2206C38.8274 4.56445 40.13 5.86705 40.13 7.47388V53.824C40.13 55.4309 38.8274 56.7335 37.2206 56.7335H2.90943C1.3026 56.7335 0 55.4309 0 53.824V7.47388Z" fill="white"/>
<path fill-rule="evenodd" clip-rule="evenodd" d="M37.2206 7.47388H2.90943V53.824H37.2206L37.2206 7.47388ZM2.90943 4.56445C1.30259 4.56445 0 5.86705 0 7.47388V53.824C0 55.4309 1.3026 56.7335 2.90943 56.7335H37.2206C38.8274 56.7335 40.13 55.4309 40.13 53.824V7.47388C40.13 5.86705 38.8274 4.56445 37.2206 4.56445H2.90943Z" fill="#B80106"/>
<path d="M23.0757 3.00975C23.0757 4.67199 21.7281 6.0195 20.0659 6.0195C18.4037 6.0195 17.0562 4.67199 17.0562 3.00975C17.0562 1.34751 18.4037 0 20.0659 0C21.7281 0 23.0757 1.34751 23.0757 3.00975Z" fill="#B80106"/>
<path fill-rule="evenodd" clip-rule="evenodd" d="M20.0659 4.56479C20.9247 4.56479 21.6209 3.86857 21.6209 3.00975C21.6209 2.15093 20.9247 1.45471 20.0659 1.45471C19.2071 1.45471 18.5109 2.15093 18.5109 3.00975C18.5109 3.86857 19.2071 4.56479 20.0659 4.56479ZM20.0659 6.0195C21.7281 6.0195 23.0757 4.67199 23.0757 3.00975C23.0757 1.34751 21.7281 0 20.0659 0C18.4037 0 17.0562 1.34751 17.0562 3.00975C17.0562 4.67199 18.4037 6.0195 20.0659 6.0195Z" fill="#B80106"/>
<path d="M12.0396 5.46802C12.0396 3.86119 13.3421 2.55859 14.949 2.55859H25.1821C26.789 2.55859 28.0916 3.86119 28.0916 5.46802V5.66867C28.0916 7.2755 26.789 8.57809 25.1821 8.57809H14.949C13.3421 8.57809 12.0396 7.2755 12.0396 5.66867V5.46802Z" fill="#B80106"/>
<path fill-rule="evenodd" clip-rule="evenodd" d="M25.1821 4.01331H14.949C14.1456 4.01331 13.4943 4.6646 13.4943 5.46802V5.66867C13.4943 6.47208 14.1456 7.12338 14.949 7.12338H25.1821C25.9855 7.12338 26.6368 6.47208 26.6368 5.66867V5.46802C26.6368 4.6646 25.9855 4.01331 25.1821 4.01331ZM14.949 2.55859C13.3421 2.55859 12.0396 3.86119 12.0396 5.46802V5.66867C12.0396 7.2755 13.3421 8.57809 14.949 8.57809H25.1821C26.789 8.57809 28.0916 7.2755 28.0916 5.66867V5.46802C28.0916 3.86119 26.789 2.55859 25.1821 2.55859H14.949Z" fill="#B80106"/>
<path fill-rule="evenodd" clip-rule="evenodd" d="M33.5085 19.6383H17.4565V18.1836H33.5085V19.6383Z" fill="#B80106"/>
<path fill-rule="evenodd" clip-rule="evenodd" d="M33.5085 34.1862H17.4565V32.7314H33.5085V34.1862Z" fill="#B80106"/>
<path fill-rule="evenodd" clip-rule="evenodd" d="M33.5085 47.278H17.4565V45.8232H33.5085V47.278Z" fill="#B80106"/>
<path d="M5.09131 29.0944C5.09131 28.2909 5.74261 27.6396 6.54602 27.6396H12.3649C13.1683 27.6396 13.8196 28.2909 13.8196 29.0944V34.9132C13.8196 35.7166 13.1683 36.3679 12.3649 36.3679H6.54602C5.74261 36.3679 5.09131 35.7166 5.09131 34.9132V29.0944Z" fill="#B80106"/>
<path fill-rule="evenodd" clip-rule="evenodd" d="M7.27338 42.9137C6.87167 42.9137 6.54602 43.2393 6.54602 43.6411V48.0052C6.54602 48.4069 6.87167 48.7325 7.27338 48.7325H11.6375C12.0392 48.7325 12.3649 48.4069 12.3649 48.0052V43.6411C12.3649 43.2393 12.0392 42.9137 11.6375 42.9137H7.27338ZM5.09131 43.6411C5.09131 42.4359 6.06825 41.459 7.27338 41.459H11.6375C12.8426 41.459 13.8196 42.4359 13.8196 43.6411V48.0052C13.8196 49.2103 12.8426 50.1873 11.6375 50.1873H7.27338C6.06825 50.1873 5.09131 49.2103 5.09131 48.0052V43.6411Z" fill="#B80106"/>
<path fill-rule="evenodd" clip-rule="evenodd" d="M7.27338 15.274C6.87167 15.274 6.54602 15.5997 6.54602 16.0014V20.3655C6.54602 20.7672 6.87167 21.0929 7.27338 21.0929H11.6375C12.0392 21.0929 12.3649 20.7672 12.3649 20.3655V16.0014C12.3649 15.5997 12.0392 15.274 11.6375 15.274H7.27338ZM5.09131 16.0014C5.09131 14.7963 6.06825 13.8193 7.27338 13.8193H11.6375C12.8426 13.8193 13.8196 14.7963 13.8196 16.0014V20.3655C13.8196 21.5707 12.8426 22.5476 11.6375 22.5476H7.27338C6.06825 22.5476 5.09131 21.5707 5.09131 20.3655V16.0014Z" fill="#B80106"/>
</svg>
