<svg width="20" height="20" viewBox="0 0 20 20" fill="none" xmlns="http://www.w3.org/2000/svg">
<path d="M19.1279 10.6547C18.9106 10.6547 18.6932 10.5678 18.5194 10.4157L10 2.09182L1.48063 10.4157C1.1329 10.7417 0.58957 10.7417 0.241841 10.3939C-0.0841553 10.0462 -0.0841473 9.50285 0.263582 9.15512L9.39148 0.244493C9.73921 -0.0815049 10.2608 -0.0815049 10.6085 0.244493L19.7364 9.15512C20.0841 9.48111 20.0842 10.0462 19.7582 10.3939C19.5843 10.5678 19.3452 10.6547 19.1279 10.6547ZM17.2154 19.1307V10.633C17.2154 10.1549 16.8242 9.76366 16.3461 9.76366C15.8679 9.76366 15.4767 10.1549 15.4767 10.633V18.2613H12.7601V13.6104C12.7601 12.9802 12.2385 12.4586 11.6083 12.4586H8.37002C7.73976 12.4586 7.21817 12.9802 7.21817 13.6104V18.2613H4.50153V10.633C4.50153 10.1549 4.11034 9.76366 3.63221 9.76366C3.15408 9.76366 2.76289 10.1549 2.76289 10.633V19.1307C2.76289 19.6088 3.15408 20 3.63221 20H8.08749C8.56562 20 8.95681 19.6088 8.95681 19.1307V14.1972H11.0215V19.1307C11.0215 19.6088 11.4127 20 11.8908 20H16.3461C16.8459 20 17.2154 19.6088 17.2154 19.1307Z" fill="white" fill-opacity="0.7"/>
</svg>
