<svg width="20" height="20" viewBox="0 0 20 20" fill="none" xmlns="http://www.w3.org/2000/svg">
<path fill-rule="evenodd" clip-rule="evenodd" d="M18.5194 10.4157C18.6932 10.5678 18.9106 10.6547 19.1279 10.6547C19.3452 10.6547 19.5843 10.5678 19.7582 10.3939C20.0842 10.0462 20.0841 9.48112 19.7364 9.15512L10.6085 0.244499C10.2608 -0.0814996 9.73921 -0.0814996 9.39148 0.244499L0.263583 9.15512C-0.0841459 9.50285 -0.0841538 10.0462 0.241842 10.3939C0.589572 10.7417 1.1329 10.7417 1.48063 10.4157L4.48755 7.47775L10 2.09182L15.4942 7.45989L18.5194 10.4157Z" fill="white"/>
<path d="M17.2154 19.1307V7.63299C17.2154 7.15486 16.8242 6.76366 16.3461 6.76366C15.9272 6.76366 15.575 7.06395 15.4942 7.45989C15.4827 7.51587 15.4767 7.57376 15.4767 7.63299V18.2613H12.7601V13.6104C12.7601 12.9802 12.2385 12.4586 11.6083 12.4586H8.37002C7.73976 12.4586 7.21817 12.9802 7.21817 13.6104V18.2613H4.50153V7.63299C4.50153 7.58004 4.49674 7.52815 4.48755 7.47775C4.41382 7.07301 4.05739 6.76366 3.63221 6.76366C3.15408 6.76366 2.76289 7.15486 2.76289 7.63299V19.1307C2.76289 19.6088 3.15408 20 3.63221 20H8.08749C8.56562 20 8.95682 19.6088 8.95682 19.1307V14.1972H11.0215V19.1307C11.0215 19.6088 11.4127 20 11.8908 20H16.3461C16.8459 20 17.2154 19.6088 17.2154 19.1307Z" fill="white"/>
<path d="M15.4942 7.45989L10 2.09182L4.48755 7.47775C4.49674 7.52815 4.50153 7.58004 4.50153 7.63299V18.2613H7.21817V13.6104C7.21817 12.9802 7.73976 12.4586 8.37002 12.4586H11.6083C12.2385 12.4586 12.7601 12.9802 12.7601 13.6104V18.2613H15.4767V7.63299C15.4767 7.57376 15.4827 7.51587 15.4942 7.45989Z" fill="white"/>
</svg>
