<svg width="49" height="42" viewBox="0 0 49 42" fill="none" xmlns="http://www.w3.org/2000/svg">
<path fill-rule="evenodd" clip-rule="evenodd" d="M17.6498 18.3773C16.3335 17.0614 14.1997 17.0615 12.8836 18.3776C11.5674 19.6937 11.5674 21.8275 12.8833 23.1438L12.8831 23.144L17.6495 27.9104L22.4023 23.1576C22.4069 23.1531 22.4115 23.1485 22.416 23.1439C23.7323 21.8277 23.7323 19.6937 22.416 18.3775C21.0999 17.0613 18.966 17.0613 17.6498 18.3773Z" fill="#B80106"/>
<rect width="7.00002" height="28.0001" fill="#B80106"/>
<path d="M28 0H35.0001V28.0001H28V0Z" fill="#B80106"/>
<path d="M41.9999 0H48.9999V28.0001H41.9999V0Z" fill="#B80106"/>
<rect x="7.00008" y="7.38889" width="35.0001" height="7.00002" fill="#B80106"/>
<path d="M0 35.0002H7.00002V42.0002H0V35.0002Z" fill="#B80106"/>
<path d="M13.9999 35.0002H20.9999V42.0002H13.9999V35.0002Z" fill="#B80106"/>
<path d="M28 35.0002H35.0001V42.0002H28V35.0002Z" fill="#B80106"/>
<path d="M41.9999 35.0002H48.9999V42.0002H41.9999V35.0002Z" fill="#B80106"/>
</svg>
