<svg width="149" height="168" viewBox="0 0 149 168" fill="none" xmlns="http://www.w3.org/2000/svg">
<path fill-rule="evenodd" clip-rule="evenodd" d="M53.6692 55.8827C49.6668 51.8804 43.1778 51.8804 39.1754 55.8827C35.1731 59.8851 35.1731 66.3742 39.1754 70.3765L39.2079 70.4089L53.6693 84.8703L68.1631 70.3765L68.1631 70.3764C72.1653 66.3741 72.1653 59.885 68.163 55.8827C64.1606 51.8804 57.6716 51.8804 53.6692 55.8827Z" fill="white"/>
<rect width="21.2857" height="85.1428" fill="white"/>
<path d="M85.1428 0H106.429V85.1428H85.1428V0Z" fill="white"/>
<path d="M127.714 0H149V85.1428H127.714V0Z" fill="white"/>
<rect x="21.2856" y="22.4682" width="106.429" height="21.2857" fill="white"/>
<path d="M0 106.429H21.2857V127.714H0V106.429Z" fill="white"/>
<path d="M42.5714 106.429H63.8571V127.714H42.5714V106.429Z" fill="white"/>
<path d="M85.1428 106.429H106.429V127.714H85.1428V106.429Z" fill="white"/>
<path d="M127.714 106.429H149V127.714H127.714V106.429Z" fill="white"/>
<path d="M1.77734 165.429V145.522H8.75C11.1654 145.522 12.9974 145.987 14.2461 146.917C15.4948 147.837 16.1191 149.191 16.1191 150.977C16.1191 151.953 15.8685 152.814 15.3672 153.561C14.8659 154.3 14.1686 154.842 13.2754 155.188C14.2962 155.444 15.0983 155.959 15.6816 156.733C16.2741 157.508 16.5703 158.456 16.5703 159.577C16.5703 161.491 15.9596 162.94 14.7383 163.925C13.5169 164.909 11.776 165.41 9.51562 165.429H1.77734ZM5.87891 156.761V162.134H9.39258C10.3587 162.134 11.1107 161.906 11.6484 161.45C12.1953 160.985 12.4688 160.347 12.4688 159.536C12.4688 157.713 11.5254 156.788 9.63867 156.761H5.87891ZM5.87891 153.862H8.91406C10.9831 153.826 12.0176 153.001 12.0176 151.388C12.0176 150.485 11.7533 149.838 11.2246 149.446C10.7051 149.045 9.88021 148.845 8.75 148.845H5.87891V153.862ZM28.5529 154.341C28.0151 154.268 27.5412 154.231 27.131 154.231C25.6362 154.231 24.6564 154.737 24.1916 155.749V165.429H20.2404V150.636H23.9728L24.0822 152.399C24.8752 151.041 25.9735 150.362 27.3771 150.362C27.8146 150.362 28.2248 150.421 28.6076 150.54L28.5529 154.341ZM39.4691 165.429C39.2868 165.073 39.1546 164.631 39.0726 164.102C38.1155 165.169 36.8714 165.702 35.3402 165.702C33.8909 165.702 32.6878 165.283 31.7308 164.444C30.7829 163.606 30.3089 162.548 30.3089 161.272C30.3089 159.705 30.8877 158.502 32.0452 157.663C33.2119 156.824 34.8935 156.401 37.0902 156.391H38.9085V155.544C38.9085 154.86 38.7308 154.313 38.3753 153.903C38.029 153.493 37.4775 153.288 36.721 153.288C36.0557 153.288 35.5316 153.447 35.1488 153.766C34.7751 154.085 34.5882 154.523 34.5882 155.079H30.637C30.637 154.222 30.9014 153.429 31.43 152.7C31.9586 151.971 32.706 151.401 33.6722 150.991C34.6383 150.572 35.723 150.362 36.9261 150.362C38.749 150.362 40.1937 150.822 41.2601 151.743C42.3356 152.655 42.8734 153.94 42.8734 155.599V162.011C42.8825 163.414 43.0784 164.476 43.4613 165.196V165.429H39.4691ZM36.2015 162.681C36.7848 162.681 37.3226 162.553 37.8148 162.298C38.307 162.033 38.6715 161.682 38.9085 161.245V158.702H37.432C35.4541 158.702 34.4014 159.386 34.2738 160.753L34.2601 160.985C34.2601 161.477 34.4333 161.883 34.7796 162.202C35.126 162.521 35.5999 162.681 36.2015 162.681ZM51.479 146.999V150.636H54.0083V153.534H51.479V160.917C51.479 161.464 51.5838 161.856 51.7934 162.093C52.0031 162.33 52.4041 162.448 52.9966 162.448C53.4341 162.448 53.8214 162.416 54.1587 162.352V165.347C53.3839 165.584 52.5864 165.702 51.7661 165.702C48.9953 165.702 47.5825 164.303 47.5278 161.505V153.534H45.3677V150.636H47.5278V146.999H51.479ZM61.2194 165.429H57.2545V150.636H61.2194V165.429ZM57.0221 146.807C57.0221 146.215 57.2181 145.727 57.61 145.345C58.011 144.962 58.5534 144.77 59.237 144.77C59.9114 144.77 60.4492 144.962 60.8502 145.345C61.2513 145.727 61.4518 146.215 61.4518 146.807C61.4518 147.409 61.2467 147.901 60.8366 148.284C60.4355 148.667 59.9023 148.858 59.237 148.858C58.5716 148.858 58.0338 148.667 57.6237 148.284C57.2226 147.901 57.0221 147.409 57.0221 146.807ZM73.3387 161.341C73.3387 160.858 73.0971 160.479 72.6141 160.206C72.1401 159.923 71.3745 159.673 70.3172 159.454C66.799 158.716 65.0398 157.221 65.0398 154.97C65.0398 153.657 65.5822 152.563 66.6668 151.688C67.7605 150.804 69.187 150.362 70.9461 150.362C72.8237 150.362 74.323 150.804 75.4441 151.688C76.5743 152.572 77.1395 153.721 77.1395 155.134H73.1883C73.1883 154.569 73.006 154.104 72.6414 153.739C72.2768 153.365 71.7072 153.179 70.9324 153.179C70.2671 153.179 69.7521 153.329 69.3875 153.63C69.0229 153.931 68.8406 154.313 68.8406 154.778C68.8406 155.216 69.0457 155.571 69.4559 155.845C69.8751 156.109 70.577 156.341 71.5613 156.542C72.5457 156.733 73.3751 156.952 74.0496 157.198C76.1368 157.964 77.1805 159.29 77.1805 161.177C77.1805 162.526 76.6017 163.619 75.4441 164.458C74.2866 165.287 72.7918 165.702 70.9598 165.702C69.7202 165.702 68.6173 165.483 67.6512 165.046C66.6941 164.599 65.9422 163.993 65.3953 163.227C64.8484 162.453 64.575 161.619 64.575 160.725H68.3211C68.3576 161.427 68.6173 161.965 69.1004 162.339C69.5835 162.712 70.2306 162.899 71.0418 162.899C71.7983 162.899 72.368 162.758 72.7508 162.475C73.1427 162.184 73.3387 161.806 73.3387 161.341ZM84.9384 162.134H93.6474V165.429H80.8369V145.522H84.9384V162.134ZM112.329 155.927C112.329 157.886 111.983 159.604 111.29 161.081C110.597 162.557 109.604 163.697 108.31 164.499C107.025 165.301 105.548 165.702 103.88 165.702C102.23 165.702 100.758 165.306 99.464 164.513C98.1697 163.72 97.1671 162.589 96.4562 161.122C95.7452 159.645 95.3852 157.95 95.3761 156.036V155.052C95.3761 153.092 95.727 151.369 96.4288 149.884C97.1398 148.389 98.1378 147.245 99.423 146.452C100.717 145.65 102.194 145.249 103.853 145.249C105.512 145.249 106.984 145.65 108.269 146.452C109.563 147.245 110.561 148.389 111.263 149.884C111.974 151.369 112.329 153.087 112.329 155.038V155.927ZM108.173 155.024C108.173 152.937 107.799 151.351 107.052 150.266C106.304 149.182 105.238 148.64 103.853 148.64C102.476 148.64 101.415 149.177 100.667 150.253C99.9197 151.319 99.5415 152.887 99.5323 154.956V155.927C99.5323 157.959 99.906 159.536 100.653 160.657C101.401 161.778 102.476 162.339 103.88 162.339C105.256 162.339 106.314 161.801 107.052 160.725C107.79 159.641 108.164 158.064 108.173 155.995V155.024ZM123.204 160.493L127.716 145.522H132.283L125.351 165.429H121.072L114.167 145.522H118.72L123.204 160.493ZM146.986 156.802H139.111V162.134H148.353V165.429H135.009V145.522H148.326V148.845H139.111V153.589H146.986V156.802Z" fill="white"/>
</svg>
