<?xml version="1.0" encoding="UTF-8"?>
<svg width="400px" height="400px" viewBox="0 0 400 400" version="1.1" xmlns="http://www.w3.org/2000/svg" xmlns:xlink="http://www.w3.org/1999/xlink">
    <title>Artboard Copy</title>
    <g id="Artboard-Copy" stroke="none" stroke-width="1" fill="none" fill-rule="evenodd">
        <path d="M384.060967,15.9390335 C404.758754,36.6368209 404.758754,70.1945648 384.060967,90.8923523 L180.952,293.999693 L347,294 C376.271092,294 400,317.728908 400,347 C400,376.271092 376.271092,400 347,400 L53,400 C23.7289083,400 3.58467488e-15,376.271092 0,347 C-1.79660197e-15,332.329632 5.96048987,319.05141 15.5918634,309.454942 C15.6139813,309.432738 15.6361455,309.410536 15.6583335,309.388348 L309.107648,15.9390335 C329.805435,-4.75875401 363.363179,-4.75875401 384.060967,15.9390335 Z" id="Combined-Shape" fill="#FFFFFF"></path>
        <path d="M72.5,145 C112.540644,145 145,112.540644 145,72.5 C145,32.4593556 112.540644,0 72.5,0 C32.4593556,0 0,32.4593556 0,72.5 C0,90.1417521 6.30117015,106.311787 16.7756723,118.882267 C19.4660125,122.110952 12.7139598,145 12.7139598,145 C12.7139598,145 33.1246827,133.57065 37.2691328,135.879371 C47.6994481,141.689716 59.7131449,145 72.5,145 Z" id="Oval" fill="#FFFFFF"></path>
        <g id="Group" transform="translate(22.000000, 33.000000)" fill="#B80106">
            <rect id="Rectangle" x="15" y="0" width="72" height="20" rx="10"></rect>
            <rect id="Rectangle" x="15" y="60" width="72" height="20" rx="10"></rect>
            <rect id="Rectangle" x="0" y="30" width="102" height="20" rx="10"></rect>
        </g>
    </g>
</svg>