<svg width="186" height="54" viewBox="0 0 186 54" fill="none" xmlns="http://www.w3.org/2000/svg">
<path d="M11.95 16.25H1.8V12H19.35L7.35 32.75H17.75V37H0.05L11.95 16.25ZM35.1496 11.4C36.9496 11.4 38.6496 11.75 40.2496 12.45C41.8496 13.1167 43.2329 14.05 44.3996 15.25C45.5996 16.4167 46.5329 17.8 47.1996 19.4C47.8996 20.9667 48.2496 22.65 48.2496 24.45V36.95H43.8996V34.15C42.7329 35.1833 41.3996 36 39.8996 36.6C38.4329 37.1667 36.8496 37.45 35.1496 37.45C33.3496 37.45 31.6663 37.1167 30.0996 36.45C28.5329 35.75 27.1496 34.8167 25.9496 33.65C24.7829 32.4833 23.8496 31.1167 23.1496 29.55C22.4829 27.95 22.1496 26.25 22.1496 24.45C22.1496 22.65 22.4829 20.9667 23.1496 19.4C23.8496 17.8 24.7829 16.4167 25.9496 15.25C27.1496 14.05 28.5329 13.1167 30.0996 12.45C31.6663 11.75 33.3496 11.4 35.1496 11.4ZM35.1496 15.7C33.9496 15.7 32.8163 15.9333 31.7496 16.4C30.6829 16.8333 29.7496 17.45 28.9496 18.25C28.1829 19.05 27.5663 19.9833 27.0996 21.05C26.6329 22.1167 26.3996 23.25 26.3996 24.45C26.3996 25.65 26.6329 26.7833 27.0996 27.85C27.5663 28.9167 28.1829 29.85 28.9496 30.65C29.7496 31.4167 30.6829 32.0333 31.7496 32.5C32.8163 32.9667 33.9496 33.2 35.1496 33.2C36.3829 33.2 37.5329 32.9667 38.5996 32.5C39.6663 32.0333 40.5829 31.4167 41.3496 30.65C42.1496 29.85 42.7663 28.9167 43.1996 27.85C43.6663 26.7833 43.8996 25.65 43.8996 24.45C43.8996 23.25 43.6663 22.1167 43.1996 21.05C42.7663 19.9833 42.1496 19.05 41.3496 18.25C40.5829 17.45 39.6663 16.8333 38.5996 16.4C37.5329 15.9333 36.3829 15.7 35.1496 15.7ZM67.6625 11.55C69.4625 11.55 71.1458 11.9 72.7125 12.6C74.3125 13.2667 75.6958 14.1833 76.8625 15.35C78.0625 16.5167 78.9958 17.9 79.6625 19.5C80.3625 21.1 80.7125 22.8 80.7125 24.6C80.7125 26.4 80.3625 28.0833 79.6625 29.65C78.9958 31.2167 78.0625 32.6 76.8625 33.8C75.6958 34.9667 74.3125 35.9 72.7125 36.6C71.1458 37.2667 69.4625 37.6 67.6625 37.6C65.9625 37.6 64.3625 37.3167 62.8625 36.75C61.3958 36.15 60.0792 35.3167 58.9125 34.25V48.65H54.6125V24.6C54.6125 22.8 54.9458 21.1 55.6125 19.5C56.3125 17.9 57.2458 16.5167 58.4125 15.35C59.6125 14.1833 60.9958 13.2667 62.5625 12.6C64.1625 11.9 65.8625 11.55 67.6625 11.55ZM67.6625 15.85C66.4625 15.85 65.3292 16.0833 64.2625 16.55C63.1958 16.9833 62.2625 17.6 61.4625 18.4C60.6625 19.2 60.0292 20.1333 59.5625 21.2C59.1292 22.2667 58.9125 23.4 58.9125 24.6C58.9125 25.8 59.1292 26.9333 59.5625 28C60.0292 29.0667 60.6625 30 61.4625 30.8C62.2625 31.5667 63.1958 32.1833 64.2625 32.65C65.3292 33.1167 66.4625 33.35 67.6625 33.35C68.8625 33.35 69.9958 33.1167 71.0625 32.65C72.1292 32.1833 73.0625 31.5667 73.8625 30.8C74.6625 30 75.2792 29.0667 75.7125 28C76.1792 26.9333 76.4125 25.8 76.4125 24.6C76.4125 23.4 76.1792 22.2667 75.7125 21.2C75.2792 20.1333 74.6625 19.2 73.8625 18.4C73.0625 17.6 72.1292 16.9833 71.0625 16.55C69.9958 16.0833 68.8625 15.85 67.6625 15.85ZM98.9453 11.45C100.745 11.45 102.429 11.8 103.995 12.5C105.595 13.1667 106.979 14.0833 108.145 15.25C109.345 16.4167 110.279 17.8 110.945 19.4C111.645 21 111.995 22.7 111.995 24.5C111.995 26.3 111.645 28 110.945 29.6C110.279 31.1667 109.345 32.5333 108.145 33.7C106.979 34.8667 105.595 35.8 103.995 36.5C102.429 37.1667 100.745 37.5 98.9453 37.5C97.1453 37.5 95.462 37.1667 93.8953 36.5C92.3286 35.8 90.9453 34.8667 89.7453 33.7C88.5786 32.5333 87.6453 31.1667 86.9453 29.6C86.2786 28 85.9453 26.3 85.9453 24.5C85.9453 22.7 86.2786 21 86.9453 19.4C87.6453 17.8 88.5786 16.4167 89.7453 15.25C90.9453 14.0833 92.3286 13.1667 93.8953 12.5C95.462 11.8 97.1453 11.45 98.9453 11.45ZM98.9453 15.75C97.7453 15.75 96.612 15.9833 95.5453 16.45C94.4786 16.8833 93.5453 17.5 92.7453 18.3C91.9453 19.1 91.312 20.0333 90.8453 21.1C90.412 22.1667 90.1953 23.3 90.1953 24.5C90.1953 25.7 90.412 26.8333 90.8453 27.9C91.312 28.9667 91.9453 29.9 92.7453 30.7C93.5453 31.4667 94.4786 32.0833 95.5453 32.55C96.612 33.0167 97.7453 33.25 98.9453 33.25C100.145 33.25 101.279 33.0167 102.345 32.55C103.412 32.0833 104.345 31.4667 105.145 30.7C105.945 29.9 106.562 28.9667 106.995 27.9C107.462 26.8333 107.695 25.7 107.695 24.5C107.695 23.3 107.462 22.1667 106.995 21.1C106.562 20.0333 105.945 19.1 105.145 18.3C104.345 17.5 103.412 16.8833 102.345 16.45C101.279 15.9833 100.145 15.75 98.9453 15.75ZM121.999 46.25C121.999 47.2167 121.783 48.1167 121.349 48.95C120.949 49.8167 120.383 50.5667 119.649 51.2C118.949 51.8333 118.116 52.3333 117.149 52.7C116.216 53.0667 115.199 53.25 114.099 53.25V49C115.099 49 115.949 48.7333 116.649 48.2C117.349 47.6667 117.699 47.0167 117.699 46.25V12H121.999V46.25ZM121.999 6.2H117.699V0.399997H121.999V6.2ZM127.568 31.05H131.918V36.85H127.568V31.05ZM144.077 26.35C143.144 26.35 142.261 26.1833 141.427 25.85C140.627 25.5167 139.911 25.0667 139.277 24.5C138.644 23.9 138.127 23.2 137.727 22.4C137.361 21.6 137.161 20.7333 137.127 19.8C137.094 19.6 137.077 19.35 137.077 19.05C137.077 18.7167 137.094 18.45 137.127 18.25C137.161 17.35 137.361 16.5 137.727 15.7C138.127 14.9 138.644 14.2 139.277 13.6C139.911 13 140.627 12.5333 141.427 12.2C142.261 11.8667 143.144 11.7 144.077 11.7H153.677V16H144.077C143.377 16 142.761 16.25 142.227 16.75C141.727 17.2167 141.444 17.8167 141.377 18.55C141.311 18.8833 141.311 19.2333 141.377 19.6C141.444 20.3 141.727 20.9 142.227 21.4C142.761 21.8667 143.377 22.1 144.077 22.1H147.527C148.461 22.1 149.344 22.2833 150.177 22.65C151.011 22.9833 151.727 23.45 152.327 24.05C152.961 24.65 153.461 25.35 153.827 26.15C154.227 26.95 154.444 27.8167 154.477 28.75V30.15C154.477 31.1167 154.277 32.0167 153.877 32.85C153.511 33.65 153.011 34.3667 152.377 35C151.777 35.6333 151.044 36.1333 150.177 36.5C149.344 36.8333 148.444 37 147.477 37H137.627V32.75H147.477C148.144 32.75 148.711 32.5333 149.177 32.1C149.677 31.6667 150.011 31.15 150.177 30.55V30.35C150.177 30.2833 150.177 30.2333 150.177 30.2C150.211 30.1333 150.227 30.0667 150.227 30V29.05C150.194 28.2833 149.911 27.65 149.377 27.15C148.877 26.6167 148.244 26.35 147.477 26.35H144.077ZM172.226 11.4C174.026 11.4 175.726 11.75 177.326 12.45C178.926 13.1167 180.309 14.05 181.476 15.25C182.676 16.4167 183.609 17.8 184.276 19.4C184.976 20.9667 185.326 22.65 185.326 24.45V36.95H180.976V34.15C179.809 35.1833 178.476 36 176.976 36.6C175.509 37.1667 173.926 37.45 172.226 37.45C170.426 37.45 168.742 37.1167 167.176 36.45C165.609 35.75 164.226 34.8167 163.026 33.65C161.859 32.4833 160.926 31.1167 160.226 29.55C159.559 27.95 159.226 26.25 159.226 24.45C159.226 22.65 159.559 20.9667 160.226 19.4C160.926 17.8 161.859 16.4167 163.026 15.25C164.226 14.05 165.609 13.1167 167.176 12.45C168.742 11.75 170.426 11.4 172.226 11.4ZM172.226 15.7C171.026 15.7 169.892 15.9333 168.826 16.4C167.759 16.8333 166.826 17.45 166.026 18.25C165.259 19.05 164.642 19.9833 164.176 21.05C163.709 22.1167 163.476 23.25 163.476 24.45C163.476 25.65 163.709 26.7833 164.176 27.85C164.642 28.9167 165.259 29.85 166.026 30.65C166.826 31.4167 167.759 32.0333 168.826 32.5C169.892 32.9667 171.026 33.2 172.226 33.2C173.459 33.2 174.609 32.9667 175.676 32.5C176.742 32.0333 177.659 31.4167 178.426 30.65C179.226 29.85 179.842 28.9167 180.276 27.85C180.742 26.7833 180.976 25.65 180.976 24.45C180.976 23.25 180.742 22.1167 180.276 21.05C179.842 19.9833 179.226 19.05 178.426 18.25C177.659 17.45 176.742 16.8333 175.676 16.4C174.609 15.9333 173.459 15.7 172.226 15.7Z" fill="white"/>
</svg>
