<svg width="19" height="20" viewBox="0 0 19 20" fill="none" xmlns="http://www.w3.org/2000/svg">
<path d="M17.413 15.5435C15.9565 15.5435 15.3913 14.6957 15.3913 9.36959C15.3913 5.19567 13.5 2.58698 10.2391 2.19567V0.869565C10.2391 0.391304 9.84782 0 9.36956 0C8.8913 0 8.5 0.391304 8.5 0.869565V2.17391C5.02174 2.45652 3 5.10872 3 9.36959C3 14.6957 2.36956 15.5435 0.891304 15.5435C0.413043 15.5435 5.3074e-06 15.8696 5.3074e-06 16.3696C5.3074e-06 16.8478 0.369562 17.1957 0.847823 17.1957H6.5C6.56521 17.8478 6.76087 18.6522 7.28261 19.2174C7.73913 19.7174 8.34782 20 9.06521 20C9.7826 20 10.3913 19.6956 10.8478 19.2174C11.3913 18.6304 11.6087 17.8478 11.6957 17.1957H17.413C17.8913 17.1957 18.2826 16.8696 18.2826 16.3696C18.2826 15.8696 17.8913 15.5435 17.413 15.5435ZM9.63043 18.0217C9.54348 18.1087 9.41304 18.2391 9.10869 18.2391C8.82608 18.2391 8.69565 18.1087 8.60869 18.0217C8.43478 17.8261 8.34782 17.6087 8.28261 17.1739H9.02174C9.06522 17.1739 9.10869 17.1739 9.15217 17.1739C9.19565 17.1739 9.23912 17.1739 9.2826 17.1739H10C9.93478 17.6087 9.82609 17.8261 9.63043 18.0217ZM9.2826 15.4348C9.23912 15.4348 9.19565 15.4348 9.15217 15.4348C9.10869 15.4348 9.06522 15.4348 9.02174 15.4348H3.8913C4.69565 13.913 4.69565 11.5435 4.69565 9.32607C4.69565 5.78259 6.23913 3.91304 9.02174 3.91304H9.26087C12.0435 3.91304 13.587 5.78259 13.587 9.32607C13.587 11.5435 13.5869 13.913 14.3913 15.4348H9.2826ZM12.3696 7.71739C12.3913 8.13043 12.0652 8.49999 11.6522 8.52173C11.6304 8.52173 11.6304 8.52173 11.6087 8.52173C11.2174 8.52173 10.8696 8.21737 10.8478 7.80433C10.7826 6.82607 10.0217 6.47828 9.93477 6.4348C9.54347 6.26089 9.36957 5.82609 9.52174 5.43478C9.67391 5.04348 10.1087 4.86959 10.5 5.02176C10.587 5.06524 12.2609 5.76087 12.3696 7.71739Z" fill="white" fill-opacity="0.7"/>
</svg>
