<svg width="19" height="20" viewBox="0 0 19 20" fill="none" xmlns="http://www.w3.org/2000/svg">
<path fill-rule="evenodd" clip-rule="evenodd" d="M15.3913 9.36959C15.3913 14.6957 15.9565 15.5435 17.413 15.5435C17.8913 15.5435 18.2826 15.8696 18.2826 16.3696C18.2826 16.8696 17.8913 17.1957 17.413 17.1957H11.6956C11.6087 17.8478 11.3913 18.6304 10.8478 19.2174C10.3913 19.6956 9.7826 20 9.0652 20C8.34781 20 7.73913 19.7174 7.28261 19.2174C6.76087 18.6522 6.56521 17.8478 6.49999 17.1957H0.847818C0.369557 17.1957 0 16.8478 0 16.3696C0 15.8696 0.413038 15.5435 0.891299 15.5435C2.36956 15.5435 3 14.6957 3 9.36959C3 5.10872 5.02173 2.45652 8.49999 2.17391V0.869565C8.49999 0.391304 8.8913 0 9.36956 0C9.84782 0 10.2391 0.391304 10.2391 0.869565V2.19567C13.5 2.58698 15.3913 5.19567 15.3913 9.36959ZM9.10869 18.2391C9.41303 18.2391 9.54347 18.1087 9.63043 18.0217C9.82608 17.8261 9.93478 17.6087 10 17.1739H9.2826H9.15217H9.02174H8.2826C8.34782 17.6087 8.43478 17.8261 8.60869 18.0217C8.69564 18.1087 8.82608 18.2391 9.10869 18.2391ZM9.15217 15.4348H9.2826H14.3913C13.5869 13.913 13.587 11.5435 13.587 9.32607C13.587 5.78259 12.0435 3.91304 9.26086 3.91304H9.02174C6.23913 3.91304 4.69565 5.78259 4.69565 9.32607C4.69565 11.5435 4.69564 13.913 3.8913 15.4348H9.02174H9.15217Z" fill="white"/>
<path fill-rule="evenodd" clip-rule="evenodd" d="M9.2826 15.4348H9.15217H9.02174H3.8913C4.69564 13.913 4.69565 11.5435 4.69565 9.32607C4.69565 5.78259 6.23913 3.91304 9.02174 3.91304H9.26086C12.0435 3.91304 13.587 5.78259 13.587 9.32607C13.587 11.5435 13.5869 13.913 14.3913 15.4348H9.2826ZM11.6522 8.52173C12.0652 8.49999 12.3913 8.13043 12.3696 7.71739C12.2609 5.76087 10.587 5.06524 10.5 5.02176C10.1087 4.86959 9.67391 5.04348 9.52173 5.43478C9.36956 5.82609 9.54347 6.26089 9.93477 6.4348C10.0217 6.47828 10.7826 6.82607 10.8478 7.80433C10.8696 8.21737 11.2174 8.52173 11.6087 8.52173H11.6522Z" fill="white"/>
</svg>
