<svg width="41" height="57" viewBox="0 0 41 57" fill="none" xmlns="http://www.w3.org/2000/svg">
<path d="M0 7.47257C0 5.86592 1.30244 4.56348 2.90909 4.56348H37.2163C38.8229 4.56348 40.1254 5.86592 40.1254 7.47257V53.8174C40.1254 55.424 38.8229 56.7265 37.2163 56.7265H2.90909C1.30245 56.7265 0 55.424 0 53.8174V7.47257Z" fill="white"/>
<path fill-rule="evenodd" clip-rule="evenodd" d="M37.2163 7.47257H2.90909V53.8174H37.2163L37.2163 7.47257ZM2.90909 4.56348C1.30244 4.56348 0 5.86592 0 7.47257V53.8174C0 55.424 1.30245 56.7265 2.90909 56.7265H37.2163C38.8229 56.7265 40.1254 55.424 40.1254 53.8174V7.47257C40.1254 5.86592 38.8229 4.56348 37.2163 4.56348H2.90909Z" fill="#B80106"/>
<path d="M23.073 3.0094C23.073 4.67145 21.7257 6.01881 20.0636 6.01881C18.4016 6.01881 17.0542 4.67145 17.0542 3.0094C17.0542 1.34736 18.4016 0 20.0636 0C21.7257 0 23.073 1.34736 23.073 3.0094Z" fill="white"/>
<path fill-rule="evenodd" clip-rule="evenodd" d="M20.0636 3.10972C20.119 3.10972 20.1639 3.06481 20.1639 3.0094C20.1639 2.954 20.119 2.90909 20.0636 2.90909C20.0082 2.90909 19.9633 2.954 19.9633 3.0094C19.9633 3.06481 20.0082 3.10972 20.0636 3.10972ZM20.0636 6.01881C21.7257 6.01881 23.073 4.67145 23.073 3.0094C23.073 1.34736 21.7257 0 20.0636 0C18.4016 0 17.0542 1.34736 17.0542 3.0094C17.0542 4.67145 18.4016 6.01881 20.0636 6.01881Z" fill="#B80106"/>
<path d="M12.0381 5.46768C12.0381 3.86104 13.3405 2.55859 14.9472 2.55859H25.1792C26.7858 2.55859 28.0882 3.86104 28.0882 5.46768V5.66831C28.0882 7.27496 26.7858 8.5774 25.1792 8.5774H14.9472C13.3405 8.5774 12.0381 7.27496 12.0381 5.66831V5.46768Z" fill="white"/>
<path fill-rule="evenodd" clip-rule="evenodd" d="M14.9472 2.55859C13.3405 2.55859 12.0381 3.86104 12.0381 5.46768V5.66831C12.0381 7.27496 13.3405 8.5774 14.9472 8.5774H25.1792C26.7858 8.5774 28.0882 7.27496 28.0882 5.66831V5.46768C28.0882 3.86104 26.7858 2.55859 25.1792 2.55859H14.9472Z" fill="#B80106"/>
<path d="M9.96558 14.7783C12.7767 14.7783 14.1823 15.7238 14.1823 17.6147C14.1823 18.1063 14.0752 18.5601 13.8609 18.9761C13.6592 19.3921 13.407 19.7577 13.1045 20.0729C12.8019 20.3754 12.4112 20.7347 11.9321 21.1507C11.327 21.6675 10.8795 22.1087 10.5896 22.4743C10.2996 22.8273 10.1547 23.2244 10.1547 23.6656C10.0916 23.716 9.97818 23.7601 9.8143 23.798C9.66303 23.8232 9.51806 23.8358 9.3794 23.8358C9.03903 23.8358 8.7743 23.7349 8.58521 23.5332C8.39612 23.3189 8.30158 23.029 8.30158 22.6634C8.30158 22.323 8.40243 21.9953 8.60412 21.6801C8.81843 21.3524 9.14618 20.9364 9.5874 20.4321C10.1042 19.8523 10.5013 19.3417 10.7787 18.9005C11.056 18.4467 11.1947 17.955 11.1947 17.4256C11.1947 16.9718 11.0875 16.6062 10.8732 16.3289C10.6715 16.0515 10.3501 15.9129 9.90885 15.9129C9.48024 15.9129 9.15249 16.0578 8.92558 16.3478C8.69867 16.6251 8.58521 17.0033 8.58521 17.4823C8.58521 17.8227 8.63564 18.182 8.73649 18.5601C8.50958 18.6736 8.20703 18.7303 7.82885 18.7303C7.23637 18.7303 6.75734 18.5917 6.39176 18.3143C6.03879 18.0244 5.8623 17.6021 5.8623 17.0474C5.8623 16.228 6.2657 15.6481 7.07249 15.3078C7.87927 14.9548 8.84364 14.7783 9.96558 14.7783ZM9.39831 25.2918C9.90255 25.2918 10.3059 25.4115 10.6085 25.651C10.9236 25.8906 11.0812 26.2246 11.0812 26.6532C11.0812 27.0944 10.9173 27.4285 10.5896 27.6554C10.2618 27.8949 9.83952 28.0147 9.32267 28.0147C8.81843 28.0147 8.40873 27.9012 8.09358 27.6743C7.77843 27.4474 7.62085 27.1197 7.62085 26.691C7.62085 26.2498 7.78473 25.9095 8.11249 25.67C8.45285 25.4178 8.88146 25.2918 9.39831 25.2918Z" fill="#B80106"/>
<path d="M30.3289 22.0508C33.14 22.0508 34.5456 22.9962 34.5456 24.8871C34.5456 25.3788 34.4384 25.8326 34.2241 26.2486C34.0224 26.6646 33.7703 27.0302 33.4678 27.3453C33.1652 27.6479 32.7744 28.0071 32.2954 28.4231C31.6903 28.94 31.2428 29.3812 30.9529 29.7468C30.6629 30.0998 30.518 30.4968 30.518 30.9381C30.4549 30.9885 30.3415 31.0326 30.1776 31.0704C30.0263 31.0956 29.8813 31.1082 29.7427 31.1082C29.4023 31.1082 29.1376 31.0074 28.9485 30.8057C28.7594 30.5914 28.6649 30.3014 28.6649 29.9359C28.6649 29.5955 28.7657 29.2678 28.9674 28.9526C29.1817 28.6248 29.5095 28.2088 29.9507 27.7046C30.4675 27.1247 30.8646 26.6142 31.142 26.173C31.4193 25.7191 31.558 25.2275 31.558 24.6981C31.558 24.2442 31.4508 23.8787 31.2365 23.6013C31.0348 23.324 30.7133 23.1853 30.2721 23.1853C29.8435 23.1853 29.5158 23.3303 29.2889 23.6202C29.0619 23.8976 28.9485 24.2758 28.9485 24.7548C28.9485 25.0951 28.9989 25.4544 29.0998 25.8326C28.8729 25.9461 28.5703 26.0028 28.1921 26.0028C27.5996 26.0028 27.1206 25.8641 26.755 25.5868C26.4021 25.2968 26.2256 24.8745 26.2256 24.3199C26.2256 23.5005 26.629 22.9206 27.4358 22.5802C28.2426 22.2273 29.2069 22.0508 30.3289 22.0508ZM29.7616 32.5642C30.2658 32.5642 30.6692 32.684 30.9718 32.9235C31.2869 33.163 31.4445 33.4971 31.4445 33.9257C31.4445 34.3669 31.2806 34.701 30.9529 34.9279C30.6251 35.1674 30.2028 35.2871 29.6859 35.2871C29.1817 35.2871 28.772 35.1737 28.4569 34.9468C28.1417 34.7199 27.9841 34.3921 27.9841 33.9635C27.9841 33.5223 28.148 33.1819 28.4758 32.9424C28.8161 32.6903 29.2447 32.5642 29.7616 32.5642Z" fill="#B80106"/>
<path d="M17.238 35.1426C20.0492 35.1426 21.4548 36.088 21.4548 37.9789C21.4548 38.4706 21.3476 38.9244 21.1333 39.3404C20.9316 39.7564 20.6795 40.122 20.3769 40.4371C20.0744 40.7397 19.6836 41.0989 19.2046 41.5149C18.5995 42.0318 18.152 42.473 17.862 42.8386C17.5721 43.1915 17.4271 43.5886 17.4271 44.0299C17.3641 44.0803 17.2506 44.1244 17.0868 44.1622C16.9355 44.1874 16.7905 44.2 16.6519 44.2C16.3115 44.2 16.0468 44.0992 15.8577 43.8975C15.6686 43.6832 15.574 43.3932 15.574 43.0277C15.574 42.6873 15.6749 42.3595 15.8766 42.0444C16.0909 41.7166 16.4186 41.3006 16.8599 40.7964C17.3767 40.2165 17.7738 39.706 18.0511 39.2648C18.3285 38.8109 18.4671 38.3193 18.4671 37.7899C18.4671 37.336 18.36 36.9705 18.1457 36.6931C17.944 36.4158 17.6225 36.2771 17.1813 36.2771C16.7527 36.2771 16.4249 36.4221 16.198 36.712C15.9711 36.9894 15.8577 37.3675 15.8577 37.8466C15.8577 38.1869 15.9081 38.5462 16.0089 38.9244C15.782 39.0379 15.4795 39.0946 15.1013 39.0946C14.5088 39.0946 14.0298 38.9559 13.6642 38.6786C13.3113 38.3886 13.1348 37.9663 13.1348 37.4117C13.1348 36.5923 13.5382 36.0124 14.3449 35.672C15.1517 35.3191 16.1161 35.1426 17.238 35.1426ZM16.6708 45.656C17.175 45.656 17.5784 45.7758 17.8809 46.0153C18.1961 46.2548 18.3537 46.5889 18.3537 47.0175C18.3537 47.4587 18.1898 47.7928 17.862 48.0197C17.5343 48.2592 17.112 48.3789 16.5951 48.3789C16.0909 48.3789 15.6812 48.2655 15.366 48.0386C15.0509 47.8117 14.8933 47.4839 14.8933 47.0553C14.8933 46.6141 15.0572 46.2737 15.3849 46.0342C15.7253 45.7821 16.1539 45.656 16.6708 45.656Z" fill="#B80106"/>
</svg>
