<svg width="20" height="20" viewBox="0 0 20 20" fill="none" xmlns="http://www.w3.org/2000/svg">
<path d="M12.7174 13.1781C12.4348 13.0849 12.1087 13.1548 11.8913 13.3644L10 15.0873L8.10869 13.3644C7.86956 13.1548 7.56522 13.0849 7.28261 13.1781C6.06522 13.5972 0 15.8323 0 19.0687C0 19.5809 0.391304 20 0.869565 20H19.1304C19.6087 20 20 19.5809 20 19.0687C20 15.8323 13.9348 13.5972 12.7174 13.1781ZM2.19565 18.1374C3.15218 17.0431 5.45652 15.8324 7.36956 15.1339L9.43478 17.0198C9.76087 17.3224 10.2391 17.3224 10.5652 17.0198L12.6304 15.1339C14.5435 15.8556 16.8478 17.0663 17.8043 18.1374H2.19565Z" fill="white" fill-opacity="0.7"/>
<path d="M9.97777 12C13.2667 12 15.9555 9.31111 15.9555 6C15.9555 2.68889 13.2667 0 9.97777 0C6.68889 0 4 2.68889 4 6C4 9.31111 6.68889 12 9.97777 12ZM9.97777 1.75553C12.2889 1.75553 14.1778 3.64442 14.1778 5.97776C14.1778 8.31109 12.2889 10.2 9.97777 10.2C7.66666 10.2 5.77778 8.31109 5.77778 5.97776C5.77778 3.64442 7.66666 1.75553 9.97777 1.75553Z" fill="white" fill-opacity="0.7"/>
</svg>
