<svg width="16" height="20" viewBox="0 0 16 20" fill="none" xmlns="http://www.w3.org/2000/svg">
<path fill-rule="evenodd" clip-rule="evenodd" d="M14.5455 0C15.0455 0 15.4545 0.409091 15.4545 0.909091V19.0909C15.4545 19.5909 15.0455 20 14.5455 20H0.909091C0.409091 20 0 19.5909 0 19.0909V0.909091C0 0.409091 0.409091 0 0.909091 0H14.5455ZM1.81818 18.1818H13.6364V1.81818H1.81818V18.1818Z" fill="white"/>
<path fill-rule="evenodd" clip-rule="evenodd" d="M13.6364 18.1818H1.81818V1.81818H13.6364V18.1818ZM4.88636 14.0909C4.45455 14.0909 4.09091 14.4545 4.09091 14.8864C4.09091 15.3182 4.45455 15.6818 4.88636 15.6818H10.2955C10.7273 15.6818 11.0909 15.3182 11.0909 14.8864C11.0909 14.4545 10.7273 14.0909 10.2955 14.0909H4.88636ZM4.88636 10.9091C4.45455 10.9091 4.09091 11.2727 4.09091 11.7045C4.09091 12.1364 4.45455 12.5 4.88636 12.5H10.2955C10.7273 12.5 11.0909 12.1364 11.0909 11.7045C11.0909 11.2727 10.7273 10.9091 10.2955 10.9091H4.88636ZM10.3409 4.31818C10.7727 4.31818 11.1364 4.68182 11.1364 5.11364V8.29545C11.1364 8.72727 10.7727 9.09091 10.3409 9.09091H4.88636C4.45455 9.09091 4.09091 8.72727 4.09091 8.29545V5.11364C4.09091 4.68182 4.45455 4.31818 4.88636 4.31818H10.3409Z" fill="white"/>
<path d="M5.68182 5.90909H9.54546V7.5H5.68182V5.90909Z" fill="white"/>
</svg>
